<mxfile host="app.diagrams.net" modified="2024-06-04T05:15:41.738Z" agent="Mozilla/5.0 (Windows NT 10.0; Win64; x64) AppleWebKit/537.36 (KHTML, like Gecko) Chrome/125.0.0.0 Safari/537.36" etag="dBKHK9mgK0u9i1b4Exn4" version="24.4.13" type="device">
  <diagram id="aelHtRmlqzMabhh0Fujx" name="Trang-1">
    <mxGraphModel dx="1050" dy="522" grid="1" gridSize="10" guides="1" tooltips="1" connect="1" arrows="1" fold="1" page="1" pageScale="1" pageWidth="827" pageHeight="1169" math="0" shadow="0">
      <root>
        <mxCell id="0" />
        <mxCell id="1" parent="0" />
        <mxCell id="jP9_iauKfZ0_s7NQXFyu-1" value="&lt;span style=&quot;color: rgb(34, 34, 34); font-family: &amp;quot;Roboto Flex&amp;quot;; text-align: left; background-color: rgb(255, 255, 255);&quot;&gt;&lt;font style=&quot;font-size: 18px;&quot;&gt;Course&lt;/font&gt;&lt;/span&gt;" style="rounded=0;whiteSpace=wrap;html=1;" parent="1" vertex="1">
          <mxGeometry x="130" y="190" width="100" height="50" as="geometry" />
        </mxCell>
        <mxCell id="jP9_iauKfZ0_s7NQXFyu-2" value="&lt;span style=&quot;color: rgb(34, 34, 34); font-family: &amp;quot;Roboto Flex&amp;quot;; text-align: left; background-color: rgb(255, 255, 255);&quot;&gt;&lt;font style=&quot;font-size: 18px;&quot;&gt;Subject&amp;nbsp;&lt;/font&gt;&lt;/span&gt;" style="rounded=0;whiteSpace=wrap;html=1;" parent="1" vertex="1">
          <mxGeometry x="730" y="190" width="120" height="50" as="geometry" />
        </mxCell>
        <mxCell id="jP9_iauKfZ0_s7NQXFyu-3" value="&lt;font style=&quot;font-size: 18px;&quot; face=&quot;Roboto&quot;&gt;CÃ³&lt;/font&gt;" style="rhombus;whiteSpace=wrap;html=1;" parent="1" vertex="1">
          <mxGeometry x="440" y="175" width="80" height="80" as="geometry" />
        </mxCell>
        <mxCell id="jP9_iauKfZ0_s7NQXFyu-4" value="" style="endArrow=classic;html=1;rounded=0;exitX=1;exitY=0.5;exitDx=0;exitDy=0;entryX=0;entryY=0.5;entryDx=0;entryDy=0;" parent="1" source="jP9_iauKfZ0_s7NQXFyu-1" target="jP9_iauKfZ0_s7NQXFyu-3" edge="1">
          <mxGeometry width="50" height="50" relative="1" as="geometry">
            <mxPoint x="570" y="290" as="sourcePoint" />
            <mxPoint x="480" y="130" as="targetPoint" />
          </mxGeometry>
        </mxCell>
        <mxCell id="jP9_iauKfZ0_s7NQXFyu-5" value="" style="endArrow=classic;html=1;rounded=0;exitX=1;exitY=0.5;exitDx=0;exitDy=0;entryX=0;entryY=0.5;entryDx=0;entryDy=0;" parent="1" source="jP9_iauKfZ0_s7NQXFyu-3" target="jP9_iauKfZ0_s7NQXFyu-2" edge="1">
          <mxGeometry width="50" height="50" relative="1" as="geometry">
            <mxPoint x="770" y="290" as="sourcePoint" />
            <mxPoint x="540" y="160" as="targetPoint" />
            <Array as="points" />
          </mxGeometry>
        </mxCell>
        <mxCell id="jP9_iauKfZ0_s7NQXFyu-6" value="&lt;font style=&quot;font-size: 18px;&quot; face=&quot;Roboto&quot;&gt;1&lt;/font&gt;" style="text;html=1;align=center;verticalAlign=middle;whiteSpace=wrap;rounded=0;" parent="1" vertex="1">
          <mxGeometry x="310" y="175" width="60" height="30" as="geometry" />
        </mxCell>
        <mxCell id="jP9_iauKfZ0_s7NQXFyu-7" value="&lt;font style=&quot;font-size: 18px;&quot; face=&quot;Roboto&quot;&gt;N&lt;/font&gt;" style="text;html=1;align=center;verticalAlign=middle;whiteSpace=wrap;rounded=0;" parent="1" vertex="1">
          <mxGeometry x="590" y="175" width="60" height="30" as="geometry" />
        </mxCell>
        <mxCell id="jP9_iauKfZ0_s7NQXFyu-8" value="&lt;span style=&quot;font-family: Roboto;&quot;&gt;&lt;font style=&quot;font-size: 14px;&quot;&gt;&lt;u&gt;courseId&lt;/u&gt;&lt;/font&gt;&lt;/span&gt;" style="ellipse;whiteSpace=wrap;html=1;" parent="1" vertex="1">
          <mxGeometry y="300" width="90" height="40" as="geometry" />
        </mxCell>
        <mxCell id="jP9_iauKfZ0_s7NQXFyu-9" value="&lt;span style=&quot;font-family: Roboto; font-size: 14px;&quot;&gt;course&lt;/span&gt;&lt;span style=&quot;font-family: Roboto;&quot;&gt;&lt;font style=&quot;font-size: 14px;&quot;&gt;Name&lt;/font&gt;&lt;/span&gt;" style="ellipse;whiteSpace=wrap;html=1;" parent="1" vertex="1">
          <mxGeometry x="100" y="300" width="100" height="40" as="geometry" />
        </mxCell>
        <mxCell id="jP9_iauKfZ0_s7NQXFyu-10" value="&lt;span style=&quot;font-family: Roboto;&quot;&gt;&lt;font style=&quot;font-size: 14px;&quot;&gt;time&lt;/font&gt;&lt;/span&gt;" style="ellipse;whiteSpace=wrap;html=1;" parent="1" vertex="1">
          <mxGeometry x="210" y="300" width="90" height="40" as="geometry" />
        </mxCell>
        <mxCell id="jP9_iauKfZ0_s7NQXFyu-14" value="&lt;span style=&quot;font-family: Roboto;&quot;&gt;&lt;font style=&quot;font-size: 14px;&quot;&gt;status&lt;/font&gt;&lt;/span&gt;" style="ellipse;whiteSpace=wrap;html=1;" parent="1" vertex="1">
          <mxGeometry x="310" y="300" width="90" height="40" as="geometry" />
        </mxCell>
        <mxCell id="jP9_iauKfZ0_s7NQXFyu-15" value="" style="endArrow=none;html=1;rounded=0;exitX=0.5;exitY=0;exitDx=0;exitDy=0;entryX=0;entryY=1;entryDx=0;entryDy=0;" parent="1" source="jP9_iauKfZ0_s7NQXFyu-8" target="jP9_iauKfZ0_s7NQXFyu-1" edge="1">
          <mxGeometry width="50" height="50" relative="1" as="geometry">
            <mxPoint x="120" y="290" as="sourcePoint" />
            <mxPoint x="170" y="240" as="targetPoint" />
          </mxGeometry>
        </mxCell>
        <mxCell id="jP9_iauKfZ0_s7NQXFyu-16" value="" style="endArrow=none;html=1;rounded=0;exitX=0.5;exitY=0;exitDx=0;exitDy=0;entryX=0.25;entryY=1;entryDx=0;entryDy=0;" parent="1" source="jP9_iauKfZ0_s7NQXFyu-9" target="jP9_iauKfZ0_s7NQXFyu-1" edge="1">
          <mxGeometry width="50" height="50" relative="1" as="geometry">
            <mxPoint x="390" y="390" as="sourcePoint" />
            <mxPoint x="160" y="240" as="targetPoint" />
          </mxGeometry>
        </mxCell>
        <mxCell id="jP9_iauKfZ0_s7NQXFyu-17" value="" style="endArrow=none;html=1;rounded=0;exitX=0.5;exitY=0;exitDx=0;exitDy=0;entryX=0.5;entryY=1;entryDx=0;entryDy=0;" parent="1" source="jP9_iauKfZ0_s7NQXFyu-10" target="jP9_iauKfZ0_s7NQXFyu-1" edge="1">
          <mxGeometry width="50" height="50" relative="1" as="geometry">
            <mxPoint x="150" y="290" as="sourcePoint" />
            <mxPoint x="200" y="240" as="targetPoint" />
          </mxGeometry>
        </mxCell>
        <mxCell id="jP9_iauKfZ0_s7NQXFyu-21" value="" style="endArrow=none;html=1;rounded=0;entryX=0.75;entryY=1;entryDx=0;entryDy=0;exitX=0.5;exitY=0;exitDx=0;exitDy=0;" parent="1" source="jP9_iauKfZ0_s7NQXFyu-14" target="jP9_iauKfZ0_s7NQXFyu-1" edge="1">
          <mxGeometry width="50" height="50" relative="1" as="geometry">
            <mxPoint x="390" y="390" as="sourcePoint" />
            <mxPoint x="440" y="340" as="targetPoint" />
          </mxGeometry>
        </mxCell>
        <mxCell id="jP9_iauKfZ0_s7NQXFyu-22" value="&lt;span style=&quot;font-family: Roboto;&quot;&gt;&lt;font style=&quot;font-size: 14px;&quot;&gt;&lt;u&gt;subjectId&lt;/u&gt;&lt;/font&gt;&lt;/span&gt;" style="ellipse;whiteSpace=wrap;html=1;" parent="1" vertex="1">
          <mxGeometry x="510" y="80" width="110" height="40" as="geometry" />
        </mxCell>
        <mxCell id="jP9_iauKfZ0_s7NQXFyu-23" value="&lt;span style=&quot;font-family: Roboto;&quot;&gt;&lt;font style=&quot;font-size: 14px;&quot;&gt;subjectName&lt;/font&gt;&lt;/span&gt;" style="ellipse;whiteSpace=wrap;html=1;" parent="1" vertex="1">
          <mxGeometry x="630" y="80" width="110" height="40" as="geometry" />
        </mxCell>
        <mxCell id="jP9_iauKfZ0_s7NQXFyu-24" value="&lt;span style=&quot;font-family: Roboto;&quot;&gt;&lt;font style=&quot;font-size: 14px;&quot;&gt;status&lt;/font&gt;&lt;/span&gt;" style="ellipse;whiteSpace=wrap;html=1;" parent="1" vertex="1">
          <mxGeometry x="860" y="80" width="80" height="40" as="geometry" />
        </mxCell>
        <mxCell id="jP9_iauKfZ0_s7NQXFyu-25" value="" style="endArrow=none;html=1;rounded=0;exitX=0.5;exitY=1;exitDx=0;exitDy=0;entryX=0.25;entryY=0;entryDx=0;entryDy=0;" parent="1" source="jP9_iauKfZ0_s7NQXFyu-22" target="jP9_iauKfZ0_s7NQXFyu-2" edge="1">
          <mxGeometry width="50" height="50" relative="1" as="geometry">
            <mxPoint x="390" y="290" as="sourcePoint" />
            <mxPoint x="760" y="190" as="targetPoint" />
          </mxGeometry>
        </mxCell>
        <mxCell id="jP9_iauKfZ0_s7NQXFyu-26" value="" style="endArrow=none;html=1;rounded=0;entryX=0.5;entryY=0;entryDx=0;entryDy=0;exitX=0.5;exitY=1;exitDx=0;exitDy=0;" parent="1" source="jP9_iauKfZ0_s7NQXFyu-23" target="jP9_iauKfZ0_s7NQXFyu-2" edge="1">
          <mxGeometry width="50" height="50" relative="1" as="geometry">
            <mxPoint x="390" y="290" as="sourcePoint" />
            <mxPoint x="440" y="240" as="targetPoint" />
          </mxGeometry>
        </mxCell>
        <mxCell id="jP9_iauKfZ0_s7NQXFyu-27" value="" style="endArrow=none;html=1;rounded=0;entryX=1;entryY=0;entryDx=0;entryDy=0;exitX=0.5;exitY=1;exitDx=0;exitDy=0;" parent="1" source="jP9_iauKfZ0_s7NQXFyu-24" target="jP9_iauKfZ0_s7NQXFyu-2" edge="1">
          <mxGeometry width="50" height="50" relative="1" as="geometry">
            <mxPoint x="390" y="290" as="sourcePoint" />
            <mxPoint x="440" y="240" as="targetPoint" />
          </mxGeometry>
        </mxCell>
        <mxCell id="jP9_iauKfZ0_s7NQXFyu-29" value="&lt;font face=&quot;Roboto&quot;&gt;&lt;span style=&quot;font-size: 14px;&quot;&gt;teacher&lt;/span&gt;&lt;/font&gt;" style="ellipse;whiteSpace=wrap;html=1;" parent="1" vertex="1">
          <mxGeometry x="750" y="80" width="100" height="40" as="geometry" />
        </mxCell>
        <mxCell id="jP9_iauKfZ0_s7NQXFyu-30" value="" style="endArrow=none;html=1;rounded=0;entryX=0.75;entryY=0;entryDx=0;entryDy=0;" parent="1" source="jP9_iauKfZ0_s7NQXFyu-29" target="jP9_iauKfZ0_s7NQXFyu-2" edge="1">
          <mxGeometry width="50" height="50" relative="1" as="geometry">
            <mxPoint x="390" y="300" as="sourcePoint" />
            <mxPoint x="820" y="180" as="targetPoint" />
          </mxGeometry>
        </mxCell>
      </root>
    </mxGraphModel>
  </diagram>
</mxfile>
